<svg xmlns="http://www.w3.org/2000/svg" xmlns:xlink="http://www.w3.org/1999/xlink" viewBox="0,0,256,256" width="30px" height="30px" fill-rule="nonzero"><g fill="#27cbff" fill-rule="nonzero" stroke="none" stroke-width="1" stroke-linecap="butt" stroke-linejoin="miter" stroke-miterlimit="10" stroke-dasharray="" stroke-dashoffset="0" font-family="none" font-weight="none" font-size="none" text-anchor="none" style="mix-blend-mode: normal"><g transform="scale(8.53333,8.53333)"><path d="M15,3c-6.627,0 -12,5.373 -12,12c0,6.627 5.373,12 12,12c6.627,0 12,-5.373 12,-12c0,-6.627 -5.373,-12 -12,-12zM12,21c-3.314,0 -6,-2.686 -6,-6c0,-3.314 2.686,-6 6,-6c1.56,0 2.981,0.596 4.047,1.573l-1.434,1.404c-0.701,-0.608 -1.613,-0.977 -2.613,-0.977c-2.209,0 -4,1.791 -4,4c0,2.209 1.791,4 4,4c1.981,0 3.622,-1.442 3.94,-3.333h-3.94v-2h5.843l0.033,0.133c0.08,0.388 0.124,0.789 0.124,1.2c0,3.314 -2.686,6 -6,6zM23,16v2h-2v-2h-2v-2h2v-2h2v2h2v2z"></path></g></g></svg>